<svg width="390" height="364" viewBox="0 0 390 364" fill="none" xmlns="http://www.w3.org/2000/svg">
<path d="M380.258 257.485L208.88 171.795C203.633 169.172 201.009 167.859 198.257 167.344C195.82 166.886 193.318 166.886 190.881 167.344C188.129 167.859 185.505 169.172 180.258 171.795L8.88025 257.485C4.27425 259.788 1.97125 260.938 1.23225 262.496C0.58925 263.852 0.58925 265.427 1.23225 266.783C1.97125 268.341 4.27425 269.492 8.88025 271.795L180.258 357.485C185.505 360.108 188.129 361.42 190.881 361.936C193.318 362.394 195.82 362.394 198.257 361.936C201.009 361.42 203.633 360.108 208.88 357.485L380.258 271.795C384.864 269.492 387.167 268.341 387.906 266.783C388.549 265.427 388.549 263.852 387.906 262.496C387.167 260.938 384.864 259.788 380.258 257.485Z" fill="url(#paint0_linear_3712_4125)" stroke="#246e39" stroke-width="1.5" stroke-linecap="round" stroke-linejoin="round"/>
<path d="M380.258 246.151L208.88 160.462C203.633 157.839 201.009 156.527 198.257 156.01C195.82 155.553 193.318 155.553 190.881 156.01C188.129 156.527 185.505 157.839 180.258 160.462L8.88025 246.151C4.27425 248.454 1.97125 249.606 1.23225 251.164C0.58925 252.52 0.58925 254.093 1.23225 255.449C1.97125 257.008 4.27425 258.159 8.88025 260.462L180.258 346.151C185.505 348.775 188.129 350.087 190.881 350.603C193.318 351.06 195.82 351.06 198.257 350.603C201.009 350.087 203.633 348.775 208.88 346.151L380.258 260.462C384.864 258.159 387.167 257.008 387.906 255.449C388.549 254.093 388.549 252.52 387.906 251.164C387.167 249.606 384.864 248.454 380.258 246.151Z" fill="url(#paint1_linear_3712_4125)" stroke="#246e39" stroke-width="1.5" stroke-linecap="round" stroke-linejoin="round"/>
<path opacity="0.3" d="M380.258 236.151L208.88 150.462C203.633 147.839 201.009 146.527 198.257 146.01C195.82 145.553 193.318 145.553 190.881 146.01C188.129 146.527 185.505 147.839 180.258 150.462L8.88025 236.151C4.27425 238.454 1.97125 239.606 1.23225 241.164C0.58925 242.52 0.58925 244.093 1.23225 245.449C1.97125 247.008 4.27425 248.159 8.88025 250.462L180.258 336.151C185.505 338.775 188.129 340.087 190.881 340.603C193.318 341.06 195.82 341.06 198.257 340.603C201.009 340.087 203.633 338.775 208.88 336.151L380.258 250.462C384.864 248.159 387.167 247.008 387.906 245.449C388.549 244.093 388.549 242.52 387.906 241.164C387.167 239.606 384.864 238.454 380.258 236.151Z" stroke="#246e39" stroke-width="1.5" stroke-linecap="round" stroke-linejoin="round"/>
<path opacity="0.3" d="M380.258 226.151L208.88 140.462C203.633 137.839 201.009 136.527 198.257 136.01C195.82 135.553 193.318 135.553 190.881 136.01C188.129 136.527 185.505 137.839 180.258 140.462L8.88025 226.151C4.27425 228.454 1.97125 229.606 1.23225 231.164C0.58925 232.52 0.58925 234.093 1.23225 235.449C1.97125 237.008 4.27425 238.159 8.88025 240.462L180.258 326.151C185.505 328.775 188.129 330.087 190.881 330.603C193.318 331.06 195.82 331.06 198.257 330.603C201.009 330.087 203.633 328.775 208.88 326.151L380.258 240.462C384.864 238.159 387.167 237.008 387.906 235.449C388.549 234.093 388.549 232.52 387.906 231.164C387.167 229.606 384.864 228.454 380.258 226.151Z" stroke="#246e39" stroke-width="1.5" stroke-linecap="round" stroke-linejoin="round"/>
<path opacity="0.1" d="M380.258 216.151L208.88 130.462C203.633 127.839 201.009 126.527 198.257 126.01C195.82 125.553 193.318 125.553 190.881 126.01C188.129 126.527 185.505 127.839 180.258 130.462L8.88025 216.151C4.27425 218.454 1.97125 219.606 1.23225 221.164C0.58925 222.52 0.58925 224.093 1.23225 225.449C1.97125 227.008 4.27425 228.159 8.88025 230.462L180.258 316.151C185.505 318.775 188.129 320.087 190.881 320.603C193.318 321.06 195.82 321.06 198.257 320.603C201.009 320.087 203.633 318.775 208.88 316.151L380.258 230.462C384.864 228.159 387.167 227.008 387.906 225.449C388.549 224.093 388.549 222.52 387.906 221.164C387.167 219.606 384.864 218.454 380.258 216.151Z" stroke="#246e39" stroke-width="1.5" stroke-linecap="round" stroke-linejoin="round"/>
<path opacity="0.1" d="M380.258 206.151L208.88 120.462C203.633 117.839 201.009 116.527 198.257 116.01C195.82 115.553 193.318 115.553 190.881 116.01C188.129 116.527 185.505 117.839 180.258 120.462L8.88025 206.151C4.27425 208.454 1.97125 209.606 1.23225 211.164C0.58925 212.52 0.58925 214.093 1.23225 215.449C1.97125 217.008 4.27425 218.159 8.88025 220.462L180.258 306.151C185.505 308.775 188.129 310.087 190.881 310.603C193.318 311.06 195.82 311.06 198.257 310.603C201.009 310.087 203.633 308.775 208.88 306.151L380.258 220.462C384.864 218.159 387.167 217.008 387.906 215.449C388.549 214.093 388.549 212.52 387.906 211.164C387.167 209.606 384.864 208.454 380.258 206.151Z" stroke="#246e39" stroke-width="1.5" stroke-linecap="round" stroke-linejoin="round"/>
<path opacity="0.1" d="M380.258 196.151L208.88 110.462C203.633 107.839 201.009 106.527 198.257 106.01C195.82 105.553 193.318 105.553 190.881 106.01C188.129 106.527 185.505 107.839 180.258 110.462L8.88025 196.151C4.27425 198.454 1.97125 199.606 1.23225 201.164C0.58925 202.52 0.58925 204.093 1.23225 205.449C1.97125 207.008 4.27425 208.159 8.88025 210.462L180.258 296.151C185.505 298.775 188.129 300.087 190.881 300.603C193.318 301.06 195.82 301.06 198.257 300.603C201.009 300.087 203.633 298.775 208.88 296.151L380.258 210.462C384.864 208.159 387.167 207.008 387.906 205.449C388.549 204.093 388.549 202.52 387.906 201.164C387.167 199.606 384.864 198.454 380.258 196.151Z" stroke="#246e39" stroke-width="1.5" stroke-linecap="round" stroke-linejoin="round"/>
<path opacity="0.1" d="M380.258 186.151L208.88 100.462C203.633 97.8381 201.009 96.5263 198.257 96.01C195.82 95.5527 193.318 95.5527 190.881 96.01C188.129 96.5263 185.505 97.8381 180.258 100.462L8.88025 186.151C4.27425 188.454 1.97125 189.606 1.23225 191.164C0.58925 192.52 0.58925 194.093 1.23225 195.449C1.97125 197.008 4.27425 198.159 8.88025 200.462L180.258 286.151C185.505 288.775 188.129 290.087 190.881 290.603C193.318 291.06 195.82 291.06 198.257 290.603C201.009 290.087 203.633 288.775 208.88 286.151L380.258 200.462C384.864 198.159 387.167 197.008 387.906 195.449C388.549 194.093 388.549 192.52 387.906 191.164C387.167 189.606 384.864 188.454 380.258 186.151Z" stroke="#246e39" stroke-width="1.5" stroke-linecap="round" stroke-linejoin="round"/>
<path d="M199.902 296.333V301.84C199.902 302.587 199.902 302.96 200.193 303.246C200.449 303.496 200.857 303.7 201.358 303.828C201.929 303.974 202.676 303.974 204.169 303.974H215.184M199.902 316.64L206.569 313.307L199.902 309.973M189.236 309.973L182.569 313.307L189.236 316.64M215.902 306.624V316.24C215.902 318.48 215.902 319.6 215.03 320.456C214.263 321.209 213.04 321.821 211.534 322.204C209.823 322.64 207.583 322.64 203.102 322.64H186.036C181.555 322.64 179.315 322.64 177.604 322.204C176.098 321.821 174.875 321.209 174.108 320.456C173.236 319.6 173.236 318.48 173.236 316.24V302.373C173.236 300.133 173.236 299.013 174.108 298.158C174.875 297.405 176.098 296.793 177.604 296.409C179.315 295.973 181.555 295.973 186.036 295.973H194.6C196.557 295.973 197.535 295.973 198.456 296.084C199.272 296.182 200.053 296.344 200.769 296.563C201.576 296.81 202.268 297.156 203.651 297.848L212.153 302.099C213.537 302.791 214.229 303.137 214.723 303.54C215.162 303.898 215.485 304.288 215.681 304.697C215.902 305.157 215.902 305.646 215.902 306.624Z" stroke="#246e39" stroke-width="1.5" stroke-linecap="round" stroke-linejoin="round"/>
<path d="M250.569 266.64V269.307M266.569 266.64V269.307M250.569 290.64V293.307M266.569 290.64V293.307M279.902 275.973H285.236M279.902 282.64H285.236M231.902 275.973H237.236M231.902 282.64H237.236M250.036 290.64H267.102C271.583 290.64 273.823 290.64 275.534 290.204C277.04 289.821 278.263 289.209 279.03 288.456C279.902 287.6 279.902 286.48 279.902 284.24V275.707C279.902 273.466 279.902 272.346 279.03 271.491C278.263 270.738 277.04 270.126 275.534 269.743C273.823 269.307 271.583 269.307 267.102 269.307H250.036C245.555 269.307 243.315 269.307 241.604 269.743C240.098 270.126 238.875 270.738 238.108 271.491C237.236 272.346 237.236 273.466 237.236 275.707V284.24C237.236 286.48 237.236 287.6 238.108 288.456C238.875 289.209 240.098 289.821 241.604 290.204C243.315 290.64 245.555 290.64 250.036 290.64ZM254.836 283.973H262.302C263.796 283.973 264.543 283.973 265.113 283.828C265.615 283.7 266.023 283.496 266.278 283.245C266.569 282.96 266.569 282.587 266.569 281.84V278.107C266.569 277.36 266.569 276.987 266.278 276.701C266.023 276.45 265.615 276.246 265.113 276.119C264.543 275.973 263.796 275.973 262.302 275.973H254.836C253.342 275.973 252.595 275.973 252.025 276.119C251.523 276.246 251.115 276.45 250.86 276.701C250.569 276.987 250.569 277.36 250.569 278.107V281.84C250.569 282.587 250.569 282.96 250.86 283.245C251.115 283.496 251.523 283.7 252.025 283.828C252.595 283.973 253.342 283.973 254.836 283.973Z" stroke="#246e39" stroke-width="1.5" stroke-linecap="round" stroke-linejoin="round"/>
<path d="M153.236 273.677L130.569 279.973M130.569 279.973L107.902 273.677M130.569 279.973V292.64M154.569 285.385V274.562C154.569 274.105 154.569 273.877 154.434 273.673C154.315 273.493 154.121 273.327 153.863 273.188C153.573 273.03 153.173 272.919 152.374 272.697L132.641 267.216C131.885 267.005 131.507 266.9 131.106 266.859C130.752 266.823 130.386 266.823 130.032 266.859C129.631 266.9 129.253 267.005 128.497 267.216L108.764 272.697C107.965 272.919 107.565 273.03 107.275 273.188C107.017 273.327 106.823 273.493 106.704 273.673C106.569 273.877 106.569 274.105 106.569 274.562V285.385C106.569 285.842 106.569 286.07 106.704 286.274C106.823 286.454 107.017 286.619 107.275 286.759C107.565 286.917 107.965 287.028 108.764 287.25L128.497 292.731C129.253 292.941 129.631 293.046 130.032 293.087C130.386 293.124 130.752 293.124 131.106 293.087C131.507 293.046 131.885 292.941 132.641 292.731L152.374 287.25C153.173 287.028 153.573 286.917 153.863 286.759C154.121 286.619 154.315 286.454 154.434 286.274C154.569 286.07 154.569 285.842 154.569 285.385Z" stroke="#246e39" stroke-width="1.5" stroke-linecap="round" stroke-linejoin="round"/>
<path d="M180.258 178.818L108.88 143.129C103.633 140.505 101.009 139.193 98.2572 138.677C95.8202 138.22 93.3182 138.22 90.8812 138.677C88.1292 139.193 85.5052 140.505 80.2582 143.129L8.88025 178.818C4.27425 181.121 1.97125 182.272 1.23225 183.831C0.58925 185.187 0.58925 186.76 1.23225 188.116C1.97125 189.674 4.27425 190.826 8.88025 193.129L80.2582 228.818C85.5052 231.441 88.1292 232.753 90.8812 233.27C93.3182 233.727 95.8202 233.727 98.2572 233.27C101.009 232.753 103.633 231.441 108.88 228.818L180.258 193.129C184.864 190.826 187.167 189.674 187.906 188.116C188.549 186.76 188.549 185.187 187.906 183.831C187.167 182.272 184.864 181.121 180.258 178.818Z" fill="url(#paint2_linear_3712_4125)" stroke="#246e39" stroke-width="1.5" stroke-linecap="round" stroke-linejoin="round"/>
<path d="M380.258 178.818L308.88 143.129C303.633 140.505 301.009 139.193 298.257 138.677C295.82 138.22 293.318 138.22 290.881 138.677C288.129 139.193 285.505 140.505 280.258 143.129L208.88 178.818C204.274 181.121 201.971 182.272 201.232 183.831C200.589 185.187 200.589 186.76 201.232 188.116C201.971 189.674 204.274 190.826 208.88 193.129L280.258 228.818C285.505 231.441 288.129 232.753 290.881 233.27C293.318 233.727 295.82 233.727 298.257 233.27C301.009 232.753 303.633 231.441 308.88 228.818L380.258 193.129C384.864 190.826 387.167 189.674 387.906 188.116C388.549 186.76 388.549 185.187 387.906 183.831C387.167 182.272 384.864 181.121 380.258 178.818Z" fill="url(#paint3_linear_3712_4125)" stroke="#246e39" stroke-width="1.5" stroke-linecap="round" stroke-linejoin="round"/>
<path d="M280.258 128.151L208.88 92.4618C203.633 89.8381 201.009 88.5263 198.257 88.01C195.82 87.5527 193.318 87.5527 190.881 88.01C188.129 88.5263 185.505 89.8381 180.258 92.4618L108.88 128.151C104.274 130.454 101.971 131.606 101.232 133.164C100.589 134.52 100.589 136.093 101.232 137.449C101.971 139.008 104.274 140.159 108.88 142.462L180.258 178.151C185.505 180.775 188.129 182.087 190.881 182.603C193.318 183.06 195.82 183.06 198.257 182.603C201.009 182.087 203.633 180.775 208.88 178.151L280.258 142.462C284.864 140.159 287.167 139.008 287.906 137.449C288.549 136.093 288.549 134.52 287.906 133.164C287.167 131.606 284.864 130.454 280.258 128.151Z" fill="url(#paint4_linear_3712_4125)" stroke="#246e39" stroke-width="1.5" stroke-linecap="round" stroke-linejoin="round"/>
<path d="M280.258 229.485L208.88 193.795C203.633 191.172 201.009 189.859 198.257 189.344C195.82 188.886 193.318 188.886 190.881 189.344C188.129 189.859 185.505 191.172 180.258 193.795L108.88 229.485C104.274 231.788 101.971 232.938 101.232 234.496C100.589 235.852 100.589 237.427 101.232 238.783C101.971 240.341 104.274 241.492 108.88 243.795L180.258 279.485C185.505 282.108 188.129 283.419 190.881 283.935C193.318 284.393 195.82 284.393 198.257 283.935C201.009 283.419 203.633 282.108 208.88 279.485L280.258 243.795C284.864 241.492 287.167 240.341 287.906 238.783C288.549 237.427 288.549 235.852 287.906 234.496C287.167 232.938 284.864 231.788 280.258 229.485Z" fill="url(#paint5_linear_3712_4125)" stroke="#246e39" stroke-width="1.5" stroke-linecap="round" stroke-linejoin="round"/>
<path d="M180.258 165.484L108.88 129.794C103.633 127.171 101.009 125.859 98.2572 125.344C95.8202 124.886 93.3182 124.886 90.8812 125.344C88.1292 125.859 85.5052 127.171 80.2582 129.794L8.88025 165.484C4.27425 167.787 1.97125 168.938 1.23225 170.496C0.58925 171.852 0.58925 173.427 1.23225 174.783C1.97125 176.341 4.27425 177.491 8.88025 179.794L80.2582 215.484C85.5052 218.107 88.1292 219.42 90.8812 219.936C93.3182 220.394 95.8202 220.394 98.2572 219.936C101.009 219.42 103.633 218.107 108.88 215.484L180.258 179.794C184.864 177.491 187.167 176.341 187.906 174.783C188.549 173.427 188.549 171.852 187.906 170.496C187.167 168.938 184.864 167.787 180.258 165.484Z" fill="#246e39" fill-opacity="0.10" stroke="#246e39" stroke-width="1.5" stroke-linecap="round" stroke-linejoin="round"/>
<path d="M115.902 162.307V159.24C115.902 157.746 115.902 157 115.321 156.429C114.81 155.928 113.994 155.52 112.99 155.264C111.849 154.973 110.356 154.973 107.369 154.973H76.4364C73.4494 154.973 71.9553 154.973 70.8143 155.264C69.8113 155.52 68.9953 155.928 68.4843 156.429C67.9023 157 67.9023 157.746 67.9023 159.24V172.04C67.9023 173.533 67.9023 174.28 68.4843 174.851C68.9953 175.352 69.8113 175.76 70.8143 176.016C71.9553 176.307 73.4494 176.307 76.4364 176.307H107.369C110.356 176.307 111.849 176.307 112.99 176.016C113.994 175.76 114.81 175.352 115.321 174.851C115.902 174.28 115.902 173.533 115.902 172.04V168.973M102.569 165.64C102.569 165.02 102.569 164.711 102.671 164.453C103.092 163.395 104.746 162.568 106.862 162.358C107.377 162.307 107.997 162.307 109.236 162.307H114.569C115.808 162.307 116.428 162.307 116.943 162.358C119.059 162.568 120.712 163.395 121.133 164.453C121.236 164.711 121.236 165.02 121.236 165.64C121.236 166.259 121.236 166.569 121.133 166.827C120.712 167.885 119.059 168.712 116.943 168.922C116.428 168.973 115.808 168.973 114.569 168.973H109.236C107.997 168.973 107.377 168.973 106.862 168.922C104.746 168.712 103.092 167.885 102.671 166.827C102.569 166.569 102.569 166.259 102.569 165.64Z" stroke="#246e39" stroke-width="1.5" stroke-linecap="round" stroke-linejoin="round"/>
<path d="M380.258 165.484L308.88 129.794C303.633 127.171 301.009 125.859 298.257 125.344C295.82 124.886 293.318 124.886 290.881 125.344C288.129 125.859 285.505 127.171 280.258 129.794L208.88 165.484C204.274 167.787 201.971 168.938 201.232 170.496C200.589 171.852 200.589 173.427 201.232 174.783C201.971 176.341 204.274 177.491 208.88 179.794L280.258 215.484C285.505 218.107 288.129 219.42 290.881 219.936C293.318 220.394 295.82 220.394 298.257 219.936C301.009 219.42 303.633 218.107 308.88 215.484L380.258 179.794C384.864 177.491 387.167 176.341 387.906 174.783C388.549 173.427 388.549 171.852 387.906 170.496C387.167 168.938 384.864 167.787 380.258 165.484Z" fill="#246e39" fill-opacity="0.10" stroke="#246e39" stroke-width="1.5" stroke-linecap="round" stroke-linejoin="round"/>
<path d="M280.258 114.818L208.88 79.1288C203.633 76.5051 201.009 75.1933 198.257 74.677C195.82 74.2197 193.318 74.2197 190.881 74.677C188.129 75.1933 185.505 76.5051 180.258 79.1288L108.88 114.818C104.274 117.121 101.971 118.272 101.232 119.831C100.589 121.187 100.589 122.76 101.232 124.116C101.971 125.674 104.274 126.826 108.88 129.129L180.258 164.818C185.505 167.441 188.129 168.753 190.881 169.27C193.318 169.727 195.82 169.727 198.257 169.27C201.009 168.753 203.633 167.441 208.88 164.818L280.258 129.129C284.864 126.826 287.167 125.674 287.906 124.116C288.549 122.76 288.549 121.187 287.906 119.831C287.167 118.272 284.864 117.121 280.258 114.818Z" fill="#246e39" fill-opacity="0.10" stroke="#246e39" stroke-width="1.5" stroke-linecap="round" stroke-linejoin="round"/>
<path d="M280.258 216.151L208.88 180.462C203.633 177.839 201.009 176.527 198.257 176.01C195.82 175.553 193.318 175.553 190.881 176.01C188.129 176.527 185.505 177.839 180.258 180.462L108.88 216.151C104.274 218.454 101.971 219.606 101.232 221.164C100.589 222.52 100.589 224.093 101.232 225.449C101.971 227.008 104.274 228.159 108.88 230.462L180.258 266.151C185.505 268.775 188.129 270.087 190.881 270.603C193.318 271.06 195.82 271.06 198.257 270.603C201.009 270.087 203.633 268.775 208.88 266.151L280.258 230.462C284.864 228.159 287.167 227.008 287.906 225.449C288.549 224.093 288.549 222.52 287.906 221.164C287.167 219.606 284.864 218.454 280.258 216.151Z" fill="#246e39" fill-opacity="0.10" stroke="#246e39" stroke-width="1.5" stroke-linecap="round" stroke-linejoin="round"/>
<path d="M298.648 160.776C297.121 161.32 295.253 161.64 293.236 161.64C288.081 161.64 283.902 159.551 283.902 156.973C283.902 154.396 288.081 152.307 293.236 152.307C296.577 152.307 299.508 153.185 301.157 154.504M278.569 176.423H285.53C286.437 176.423 287.339 176.477 288.219 176.585L295.574 177.479C297.17 177.673 298.832 177.692 300.445 177.535L308.577 176.744C310.725 176.535 312.701 176.021 314.25 175.267L320.003 172.469C321.646 171.671 321.646 170.377 320.003 169.578C318.524 168.858 316.182 168.777 314.508 169.387L307.803 171.833C306.842 172.184 305.674 172.373 304.472 172.373H297.997H302.119C304.442 172.373 306.323 171.458 306.323 170.328V169.919C306.323 168.981 305.011 168.163 303.14 167.936L296.779 167.162C295.743 167.037 294.683 166.973 293.617 166.973C291.045 166.973 286.387 168.039 286.387 168.039L278.569 169.673M315.902 158.307C315.902 160.884 311.724 162.973 306.569 162.973C301.414 162.973 297.236 160.884 297.236 158.307C297.236 155.729 301.414 153.64 306.569 153.64C311.724 153.64 315.902 155.729 315.902 158.307ZM267.902 169.107V176.84C267.902 177.587 267.902 177.96 268.193 178.245C268.449 178.496 268.857 178.7 269.358 178.828C269.929 178.973 270.676 178.973 272.169 178.973H274.302C275.796 178.973 276.543 178.973 277.113 178.828C277.615 178.7 278.023 178.496 278.278 178.245C278.569 177.96 278.569 177.587 278.569 176.84V169.107C278.569 168.36 278.569 167.987 278.278 167.701C278.023 167.451 277.615 167.247 277.113 167.119C276.543 166.973 275.796 166.973 274.302 166.973H272.169C270.676 166.973 269.929 166.973 269.358 167.119C268.857 167.247 268.449 167.451 268.193 167.701C267.902 167.987 267.902 168.36 267.902 169.107Z" stroke="#246e39" stroke-width="1.5" stroke-linecap="round" stroke-linejoin="round"/>
<path d="M170.569 211.307H202.569M202.569 211.307C202.569 213.516 206.151 215.307 210.569 215.307C214.987 215.307 218.569 213.516 218.569 211.307C218.569 209.098 214.987 207.307 210.569 207.307C206.151 207.307 202.569 209.098 202.569 211.307ZM186.569 221.973H218.569M186.569 221.973C186.569 224.183 182.987 225.973 178.569 225.973C174.151 225.973 170.569 224.183 170.569 221.973C170.569 219.764 174.151 217.973 178.569 217.973C182.987 217.973 186.569 219.764 186.569 221.973Z" stroke="#246e39" stroke-width="1.5" stroke-linecap="round" stroke-linejoin="round"/>
<path opacity="0.5" d="M180.258 158.484L108.88 122.794C103.633 120.171 101.009 118.859 98.2572 118.344C95.8202 117.886 93.3182 117.886 90.8812 118.344C88.1292 118.859 85.5052 120.171 80.2582 122.794L8.88025 158.484C4.27425 160.787 1.97125 161.938 1.23225 163.496C0.58925 164.852 0.58925 166.427 1.23225 167.783C1.97125 169.341 4.27425 170.491 8.88025 172.794L80.2582 208.484C85.5052 211.107 88.1292 212.42 90.8812 212.936C93.3182 213.394 95.8202 213.394 98.2572 212.936C101.009 212.42 103.633 211.107 108.88 208.484L180.258 172.794C184.864 170.491 187.167 169.341 187.906 167.783C188.549 166.427 188.549 164.852 187.906 163.496C187.167 161.938 184.864 160.787 180.258 158.484Z" stroke="#246e39" stroke-width="1.5" stroke-linecap="round" stroke-linejoin="round"/>
<path opacity="0.2" d="M180.258 152.484L108.88 116.794C103.633 114.171 101.009 112.859 98.2572 112.344C95.8202 111.886 93.3182 111.886 90.8812 112.344C88.1292 112.859 85.5052 114.171 80.2582 116.794L8.88025 152.484C4.27425 154.787 1.97125 155.938 1.23225 157.496C0.58925 158.852 0.58925 160.427 1.23225 161.783C1.97125 163.341 4.27425 164.491 8.88025 166.794L80.2582 202.484C85.5052 205.107 88.1292 206.42 90.8812 206.936C93.3182 207.394 95.8202 207.394 98.2572 206.936C101.009 206.42 103.633 205.107 108.88 202.484L180.258 166.794C184.864 164.491 187.167 163.341 187.906 161.783C188.549 160.427 188.549 158.852 187.906 157.496C187.167 155.938 184.864 154.787 180.258 152.484Z" stroke="#246e39" stroke-width="1.5" stroke-linecap="round" stroke-linejoin="round"/>
<path opacity="0.5" d="M380.258 158.818L308.88 123.129C303.633 120.505 301.009 119.193 298.257 118.677C295.82 118.22 293.318 118.22 290.881 118.677C288.129 119.193 285.505 120.505 280.258 123.129L208.88 158.818C204.274 161.121 201.971 162.272 201.232 163.831C200.589 165.187 200.589 166.76 201.232 168.116C201.971 169.674 204.274 170.826 208.88 173.129L280.258 208.818C285.505 211.441 288.129 212.753 290.881 213.27C293.318 213.727 295.82 213.727 298.257 213.27C301.009 212.753 303.633 211.441 308.88 208.818L380.258 173.129C384.864 170.826 387.167 169.674 387.906 168.116C388.549 166.76 388.549 165.187 387.906 163.831C387.167 162.272 384.864 161.121 380.258 158.818Z" stroke="#246e39" stroke-width="1.5" stroke-linecap="round" stroke-linejoin="round"/>
<path opacity="0.2" d="M380.258 152.151L308.88 116.462C303.633 113.839 301.009 112.527 298.257 112.01C295.82 111.553 293.318 111.553 290.881 112.01C288.129 112.527 285.505 113.839 280.258 116.462L208.88 152.151C204.274 154.454 201.971 155.606 201.232 157.164C200.589 158.52 200.589 160.093 201.232 161.449C201.971 163.008 204.274 164.159 208.88 166.462L280.258 202.151C285.505 204.775 288.129 206.087 290.881 206.603C293.318 207.06 295.82 207.06 298.257 206.603C301.009 206.087 303.633 204.775 308.88 202.151L380.258 166.462C384.864 164.159 387.167 163.008 387.906 161.449C388.549 160.093 388.549 158.52 387.906 157.164C387.167 155.606 384.864 154.454 380.258 152.151Z" stroke="#246e39" stroke-width="1.5" stroke-linecap="round" stroke-linejoin="round"/>
<path opacity="0.5" d="M280.258 108.484L208.88 72.7947C203.633 70.1711 201.009 68.8593 198.257 68.3429C195.82 67.8857 193.318 67.8857 190.881 68.3429C188.129 68.8593 185.505 70.1711 180.258 72.7947L108.88 108.484C104.274 110.787 101.971 111.938 101.232 113.496C100.589 114.852 100.589 116.426 101.232 117.782C101.971 119.34 104.274 120.491 108.88 122.794L180.258 158.484C185.505 161.107 188.129 162.419 190.881 162.935C193.318 163.393 195.82 163.393 198.257 162.935C201.009 162.419 203.633 161.107 208.88 158.484L280.258 122.794C284.864 120.491 287.167 119.34 287.906 117.782C288.549 116.426 288.549 114.852 287.906 113.496C287.167 111.938 284.864 110.787 280.258 108.484Z" stroke="#246e39" stroke-width="1.5" stroke-linecap="round" stroke-linejoin="round"/>
<path opacity="0.2" d="M280.258 101.484L208.88 65.7947C203.633 63.1711 201.009 61.8593 198.257 61.3429C195.82 60.8857 193.318 60.8857 190.881 61.3429C188.129 61.8593 185.505 63.1711 180.258 65.7947L108.88 101.484C104.274 103.787 101.971 104.938 101.232 106.496C100.589 107.852 100.589 109.426 101.232 110.782C101.971 112.34 104.274 113.491 108.88 115.794L180.258 151.484C185.505 154.107 188.129 155.419 190.881 155.935C193.318 156.393 195.82 156.393 198.257 155.935C201.009 155.419 203.633 154.107 208.88 151.484L280.258 115.794C284.864 113.491 287.167 112.34 287.906 110.782C288.549 109.426 288.549 107.852 287.906 106.496C287.167 104.938 284.864 103.787 280.258 101.484Z" stroke="#246e39" stroke-width="1.5" stroke-linecap="round" stroke-linejoin="round"/>
<path opacity="0.5" d="M280.258 209.485L208.88 173.795C203.633 171.172 201.009 169.859 198.257 169.344C195.82 168.886 193.318 168.886 190.881 169.344C188.129 169.859 185.505 171.172 180.258 173.795L108.88 209.485C104.274 211.788 101.971 212.938 101.232 214.496C100.589 215.852 100.589 217.427 101.232 218.783C101.971 220.341 104.274 221.492 108.88 223.795L180.258 259.485C185.505 262.108 188.129 263.419 190.881 263.935C193.318 264.393 195.82 264.393 198.257 263.935C201.009 263.419 203.633 262.108 208.88 259.485L280.258 223.795C284.864 221.492 287.167 220.341 287.906 218.783C288.549 217.427 288.549 215.852 287.906 214.496C287.167 212.938 284.864 211.788 280.258 209.485Z" stroke="#246e39" stroke-width="1.5" stroke-linecap="round" stroke-linejoin="round"/>
<path opacity="0.2" d="M280.258 202.818L208.88 167.129C203.633 164.505 201.009 163.193 198.257 162.677C195.82 162.22 193.318 162.22 190.881 162.677C188.129 163.193 185.505 164.505 180.258 167.129L108.88 202.818C104.274 205.121 101.971 206.272 101.232 207.831C100.589 209.187 100.589 210.76 101.232 212.116C101.971 213.674 104.274 214.826 108.88 217.129L180.258 252.818C185.505 255.441 188.129 256.753 190.881 257.27C193.318 257.727 195.82 257.727 198.257 257.27C201.009 256.753 203.633 255.441 208.88 252.818L280.258 217.129C284.864 214.826 287.167 213.674 287.906 212.116C288.549 210.76 288.549 209.187 287.906 207.831C287.167 206.272 284.864 205.121 280.258 202.818Z" stroke="#246e39" stroke-width="1.5" stroke-linecap="round" stroke-linejoin="round"/>
<defs>
<linearGradient id="paint0_linear_3712_4125" x1="194.569" y1="164.64" x2="194.569" y2="364.639" gradientUnits="userSpaceOnUse">
<stop stop-color="#246e39" stop-opacity="0.26"/>
<stop offset="1" stop-color="#246e39" stop-opacity="0.10"/>
</linearGradient>
<linearGradient id="paint1_linear_3712_4125" x1="194.569" y1="153.307" x2="194.569" y2="353.307" gradientUnits="userSpaceOnUse">
<stop stop-color="#246e39" stop-opacity="0.22"/>
<stop offset="1" stop-color="#246e39" stop-opacity="0.08"/>
</linearGradient>
<linearGradient id="paint2_linear_3712_4125" x1="94.5693" y1="135.973" x2="94.5693" y2="235.973" gradientUnits="userSpaceOnUse">
<stop stop-color="#246e39" stop-opacity="0.22"/>
<stop offset="1" stop-color="#246e39" stop-opacity="0.08"/>
</linearGradient>
<linearGradient id="paint3_linear_3712_4125" x1="294.569" y1="135.973" x2="294.569" y2="235.973" gradientUnits="userSpaceOnUse">
<stop stop-color="#246e39" stop-opacity="0.22"/>
<stop offset="1" stop-color="#246e39" stop-opacity="0.08"/>
</linearGradient>
<linearGradient id="paint4_linear_3712_4125" x1="194.569" y1="85.3063" x2="194.569" y2="185.307" gradientUnits="userSpaceOnUse">
<stop stop-color="#246e39" stop-opacity="0.22"/>
<stop offset="1" stop-color="#246e39" stop-opacity="0.08"/>
</linearGradient>
<linearGradient id="paint5_linear_3712_4125" x1="194.569" y1="186.64" x2="194.569" y2="286.639" gradientUnits="userSpaceOnUse">
<stop stop-color="#246e39" stop-opacity="0.22"/>
<stop offset="1" stop-color="#246e39" stop-opacity="0.08"/>
</linearGradient>
</defs>
</svg>
